<?xml version="1.0" standalone="no"?>
<!DOCTYPE svg PUBLIC "-//W3C//DTD SVG 20010904//EN"
 "http://www.w3.org/TR/2001/REC-SVG-20010904/DTD/svg10.dtd">
<svg version="1.0" xmlns="http://www.w3.org/2000/svg"
 width="1878.000000pt" height="1878.000000pt" viewBox="0 0 1878.000000 1878.000000"
 preserveAspectRatio="xMidYMid meet">
<metadata>
Created by potrace 1.11, written by Peter Selinger 2001-2013
</metadata>
<g transform="translate(0.000000,1878.000000) scale(0.100000,-0.100000)"
fill="#000000" stroke="none">
<path d="M8785 18751 l80 -6 -75 -18 c-503 -120 -946 -375 -1350 -777 -557
-555 -1003 -1355 -1275 -2290 -103 -354 -214 -843 -259 -1145 -4 -22 -15 -94
-26 -160 -20 -127 -45 -297 -55 -380 -3 -27 -11 -86 -17 -130 -5 -44 -11 -91
-13 -105 -1 -14 -6 -59 -10 -100 -4 -41 -8 -82 -10 -90 -1 -8 -6 -51 -10 -95
-4 -44 -8 -91 -10 -105 -2 -14 -6 -63 -9 -110 -4 -47 -9 -96 -11 -110 -6 -39
-18 -195 -31 -415 -15 -245 -7 -1070 11 -1220 2 -16 6 -64 9 -105 11 -154 61
-584 86 -745 5 -33 12 -73 14 -90 68 -480 276 -1393 520 -2285 217 -796 335
-1288 376 -1565 6 -44 13 -91 15 -105 3 -14 7 -56 11 -95 3 -38 7 -80 9 -93 2
-13 7 -71 10 -130 4 -59 9 -120 11 -137 2 -16 7 -219 10 -450 3 -231 10 -445
16 -475 9 -47 18 -62 72 -115 46 -46 75 -66 116 -80 71 -24 170 -24 239 -1 74
25 164 113 182 176 20 73 16 694 -6 930 -2 19 -6 73 -10 120 -3 47 -8 96 -10
110 -2 14 -7 61 -11 105 -4 44 -8 82 -9 85 -1 3 -5 37 -9 75 -4 39 -19 142
-32 230 -14 88 -27 176 -30 195 -25 162 -95 493 -159 745 -52 209 -283 1085
-310 1180 -105 363 -300 1241 -360 1615 -6 35 -15 87 -21 124 -7 41 -53 396
-64 491 -6 55 -13 123 -16 150 -16 131 -21 392 -19 855 2 278 6 519 8 535 3
17 8 73 12 125 14 230 64 670 110 960 2 14 11 75 20 135 10 61 19 119 21 130
2 11 9 49 14 85 22 138 113 624 150 800 158 760 345 1278 632 1753 504 833
1104 1314 1734 1391 506 62 1051 -131 1579 -559 343 -278 638 -625 857 -1010
446 -782 740 -1517 948 -2369 131 -541 175 -913 175 -1491 0 -270 -9 -557 -19
-612 -2 -10 -7 -58 -10 -108 -4 -49 -9 -101 -11 -115 -2 -14 -6 -52 -10 -85
-5 -52 -16 -141 -30 -250 -30 -226 -88 -565 -141 -825 -81 -398 -122 -567
-334 -1400 -123 -483 -193 -809 -235 -1095 -9 -60 -18 -121 -20 -135 -2 -14
-6 -50 -10 -80 -3 -30 -8 -66 -10 -80 -12 -68 -52 -493 -61 -645 -3 -60 -7
-128 -9 -150 -2 -22 -7 -125 -10 -230 -4 -104 -9 -208 -10 -230 -2 -22 -6
-182 -10 -355 -4 -173 -8 -349 -10 -390 -2 -41 -4 -225 -5 -408 -1 -332 -1
-334 23 -386 30 -65 79 -115 143 -146 41 -20 64 -24 144 -24 117 -1 173 21
243 96 77 83 83 118 92 628 17 922 36 1471 60 1720 2 25 7 81 10 125 3 44 7
96 10 115 2 19 7 62 10 95 3 33 8 71 10 85 2 14 9 68 15 120 7 52 14 104 16
115 2 11 9 51 14 88 38 259 114 587 345 1487 181 704 295 1290 379 1940 33
259 50 450 63 705 13 280 6 916 -12 1025 -2 14 -7 63 -10 110 -4 47 -8 96 -10
110 -2 14 -11 79 -20 145 -55 411 -170 894 -322 1355 -234 706 -632 1580 -930
2040 -253 390 -584 755 -943 1040 -108 86 -368 264 -471 323 -239 137 -531
252 -794 313 l-80 19 90 6 c50 3 -162 5 -470 5 -308 0 -524 -2 -480 -5z"/>
<path d="M9220 17802 c-222 -16 -424 -88 -635 -227 -128 -84 -228 -168 -366
-306 -484 -486 -907 -1253 -1114 -2024 -57 -209 -165 -686 -190 -835 -3 -19
-14 -82 -25 -140 -43 -240 -78 -483 -105 -730 -8 -80 -17 -161 -20 -181 -2
-20 -7 -81 -10 -135 -4 -55 -8 -109 -10 -121 -2 -12 -7 -91 -10 -175 -4 -84
-8 -182 -10 -218 -5 -86 -5 -704 0 -800 7 -145 16 -295 20 -340 2 -25 7 -74
10 -110 3 -36 10 -101 15 -145 5 -44 12 -105 15 -135 31 -309 201 -1248 295
-1635 13 -54 328 -1484 334 -1515 2 -14 20 -97 40 -185 153 -695 228 -1139
261 -1545 3 -36 7 -90 10 -120 2 -30 7 -95 10 -145 3 -49 7 -126 10 -170 3
-44 7 -136 10 -205 19 -473 24 -497 112 -585 63 -63 122 -85 233 -85 114 0
173 23 233 90 66 72 72 94 71 280 0 155 -12 463 -19 499 -1 9 -6 63 -10 121
-4 58 -8 112 -10 121 -2 8 -6 55 -10 105 -4 49 -9 97 -10 106 -2 9 -7 52 -10
95 -4 43 -8 85 -10 93 -2 9 -6 43 -10 75 -4 33 -8 71 -10 85 -2 14 -6 45 -9
70 -20 158 -86 584 -112 720 -2 14 -7 41 -10 60 -36 222 -153 773 -349 1635
-146 644 -278 1276 -320 1535 -3 19 -8 42 -10 50 -2 8 -6 35 -9 60 -3 25 -8
54 -10 65 -2 11 -9 56 -16 100 -22 152 -29 201 -35 260 -2 28 -9 88 -15 135
-5 47 -12 123 -15 170 -3 47 -8 99 -10 115 -24 185 -24 1214 -1 1365 2 14 7
63 11 110 3 47 8 103 10 125 3 22 9 85 15 140 56 534 137 1007 252 1460 54
216 160 547 228 716 126 308 333 690 514 949 163 234 356 428 537 542 236 149
496 136 759 -38 118 -78 176 -128 320 -273 352 -355 672 -837 910 -1371 28
-63 57 -128 65 -145 92 -206 276 -747 355 -1040 77 -288 148 -641 175 -865 4
-30 9 -68 11 -85 25 -191 38 -399 38 -630 0 -164 -12 -514 -19 -525 -1 -3 -6
-49 -10 -104 -4 -54 -8 -106 -10 -115 -1 -9 -6 -43 -9 -76 -3 -33 -8 -76 -11
-95 -3 -19 -7 -55 -10 -80 -5 -46 -14 -105 -20 -150 -2 -14 -14 -88 -25 -165
-20 -134 -92 -537 -110 -620 -5 -22 -12 -55 -15 -74 -12 -72 -68 -328 -145
-661 -66 -292 -90 -399 -126 -565 -6 -26 -63 -333 -69 -365 -13 -76 -44 -281
-49 -315 -3 -22 -10 -78 -16 -125 -6 -47 -13 -101 -15 -120 -9 -64 -16 -129
-40 -372 -3 -27 -7 -69 -10 -95 -3 -27 -7 -75 -10 -108 -3 -33 -9 -112 -15
-175 -12 -132 -17 -196 -25 -295 -3 -38 -8 -90 -10 -115 -3 -25 -7 -76 -10
-115 -5 -66 -9 -106 -20 -250 -7 -84 -16 -174 -20 -215 -2 -19 -7 -75 -10
-125 -3 -49 -8 -101 -10 -115 -2 -14 -6 -61 -10 -105 -3 -44 -8 -96 -10 -115
-8 -62 -35 -372 -43 -475 -13 -185 -7 -534 11 -595 37 -128 173 -221 323 -221
104 0 227 69 268 150 20 39 25 80 31 241 13 377 16 468 20 500 2 19 7 80 10
135 4 55 8 102 10 105 1 3 6 50 10 105 3 55 8 111 10 125 2 14 6 61 10 105 4
44 8 100 10 125 2 25 7 83 10 130 3 47 8 101 10 120 2 19 7 76 10 125 3 50 8
108 10 130 3 22 7 78 10 125 3 47 7 105 10 130 4 42 7 75 20 260 6 78 12 152
20 230 3 25 7 81 10 125 3 44 8 91 10 105 2 14 7 54 10 90 4 36 15 135 26 220
11 85 22 171 24 190 24 206 99 601 190 1005 167 742 273 1266 330 1635 9 58
18 116 20 130 4 26 43 315 50 373 6 49 25 227 30 272 4 40 10 113 20 255 8 96
7 748 0 820 -22 223 -22 224 -55 460 -66 461 -166 870 -335 1377 -224 665
-472 1196 -770 1643 -92 137 -226 317 -296 398 -13 15 -53 61 -89 102 -124
142 -333 344 -495 478 -55 45 -218 153 -286 190 -87 46 -226 99 -320 121 -77
19 -252 30 -349 23z"/>
<path d="M9250 16544 c-304 -58 -559 -313 -792 -794 -223 -459 -396 -1062
-518 -1805 -17 -104 -33 -201 -35 -215 -10 -52 -51 -390 -61 -490 -3 -36 -7
-75 -9 -88 -2 -12 -7 -75 -11 -140 -3 -64 -8 -119 -9 -122 -7 -12 -19 -414
-19 -640 0 -217 9 -544 19 -685 17 -242 19 -264 45 -490 22 -193 42 -344 71
-525 11 -69 22 -141 25 -160 76 -490 184 -979 345 -1565 93 -337 138 -514 174
-678 24 -115 78 -418 90 -507 3 -25 12 -94 20 -155 8 -60 17 -137 20 -170 4
-33 8 -71 10 -85 2 -14 6 -61 10 -105 3 -44 8 -93 10 -110 2 -16 6 -70 10
-120 3 -49 8 -112 10 -140 2 -27 7 -120 10 -205 4 -85 8 -186 10 -225 2 -38 7
-275 10 -525 8 -673 6 -658 92 -744 61 -62 126 -87 228 -87 104 0 168 25 232
90 56 57 75 102 83 191 8 93 5 814 -4 970 -3 63 -9 162 -11 220 -8 166 -20
347 -30 465 -2 28 -7 82 -10 120 -16 193 -39 424 -50 505 -3 19 -7 58 -10 85
-3 28 -7 64 -10 80 -2 17 -7 48 -10 70 -9 65 -35 216 -45 265 -5 25 -12 56
-14 70 -14 82 -82 373 -182 780 -278 1125 -375 1632 -439 2305 -4 33 -8 76
-10 95 -3 19 -7 80 -11 135 -3 55 -7 113 -9 129 -26 213 -26 1268 0 1429 2 12
6 60 10 107 3 47 8 104 10 128 24 212 24 212 51 412 5 33 38 230 49 295 109
604 315 1294 490 1645 40 80 142 239 182 285 37 41 85 75 108 75 48 0 144
-110 285 -327 250 -383 491 -1045 659 -1808 38 -173 98 -546 116 -720 4 -33 8
-71 11 -85 12 -75 19 -301 18 -675 0 -557 0 -541 -39 -915 -42 -389 -101 -772
-196 -1265 -55 -282 -129 -620 -253 -1155 -160 -684 -199 -875 -241 -1179 -32
-238 -35 -432 -22 -1531 13 -1008 15 -1070 32 -1129 20 -64 83 -136 149 -169
24 -13 73 -26 109 -30 145 -18 278 51 339 176 l22 47 0 550 c0 303 -4 696 -10
875 -14 510 -11 935 9 1055 9 55 19 116 23 135 3 19 19 96 35 170 17 74 41
185 54 245 12 61 57 270 99 465 42 195 86 398 97 450 94 437 253 1256 274
1410 3 25 10 72 15 105 11 68 14 89 34 235 8 58 18 130 21 160 3 30 8 66 10
80 2 14 6 50 10 80 3 30 8 71 10 90 2 19 7 64 10 100 4 36 8 79 10 95 2 17 6
75 10 130 4 55 11 145 15 200 8 103 5 1029 -3 1100 -3 22 -8 78 -11 125 -12
154 -15 185 -20 220 -3 19 -8 58 -11 85 -66 574 -262 1330 -493 1905 -268 668
-595 1131 -894 1268 -125 57 -285 79 -408 56z"/>
<path d="M7009 4184 c-114 -29 -202 -108 -230 -208 -12 -43 -23 -268 -23 -486
1 -182 12 -550 19 -593 2 -12 6 -72 10 -134 3 -62 7 -120 9 -130 2 -10 7 -49
10 -88 4 -38 9 -81 11 -95 72 -516 209 -948 408 -1290 113 -194 197 -300 377
-478 220 -218 510 -392 825 -496 198 -66 451 -124 639 -148 83 -10 95 -14 66
-19 -19 -4 184 -7 453 -7 268 0 485 3 483 7 -3 4 52 15 122 25 308 44 557 118
807 241 470 230 841 600 1080 1074 73 147 150 358 169 466 13 72 35 236 41
300 3 39 8 81 10 95 3 14 7 68 11 120 3 52 8 103 9 112 2 9 7 79 10 155 4 76
8 154 10 173 10 101 20 498 20 825 0 332 -2 375 -18 416 -23 61 -77 116 -146
148 -47 22 -70 26 -146 26 -76 0 -99 -4 -146 -26 -30 -15 -74 -45 -97 -68 -72
-72 -73 -87 -87 -686 -3 -137 -8 -284 -10 -325 -2 -41 -7 -149 -10 -240 -4
-91 -8 -176 -10 -190 -2 -14 -6 -83 -10 -155 -3 -71 -8 -141 -10 -155 -2 -14
-7 -63 -10 -110 -4 -47 -8 -92 -10 -100 -2 -8 -7 -40 -10 -70 -9 -81 -51 -242
-86 -329 -169 -425 -542 -771 -1004 -931 -177 -62 -417 -114 -555 -120 -133
-7 -602 -5 -710 2 -292 20 -629 104 -857 214 -320 154 -607 447 -773 789 -92
189 -189 527 -215 750 -4 32 -8 66 -10 75 -2 8 -6 51 -9 95 -4 44 -9 114 -13
155 -3 41 -6 334 -7 650 -1 530 -2 578 -19 610 -34 68 -102 127 -168 149 -50
16 -148 19 -200 5z"/>
<path d="M9979 4159 c-104 -16 -208 -104 -222 -189 -4 -19 -9 -93 -12 -165
-13 -315 -21 -370 -66 -476 -30 -68 -69 -99 -124 -99 -108 0 -162 138 -190
485 -13 163 -17 192 -27 225 -18 58 -73 116 -141 150 -57 28 -73 31 -152 31
-79 0 -95 -3 -152 -31 -67 -33 -120 -88 -150 -156 -13 -29 -17 -71 -19 -169
-7 -521 188 -942 510 -1105 116 -58 169 -70 326 -70 152 0 214 12 317 62 231
111 394 360 472 719 24 115 32 188 35 342 3 138 -6 211 -35 273 -60 126 -211
197 -370 173z"/>
<path d="M10920 4148 c-95 -16 -182 -84 -221 -171 l-23 -52 0 -625 -1 -625
-28 -88 c-59 -189 -154 -323 -311 -442 -89 -66 -217 -120 -346 -144 -30 -6
-68 -13 -85 -17 -16 -3 -147 -8 -290 -10 -381 -5 -535 23 -760 139 -141 73
-296 249 -358 407 -34 87 -64 194 -72 255 -4 28 -9 61 -11 75 -3 14 -7 239 -9
500 -3 282 -9 496 -16 527 -15 76 -71 143 -152 183 -56 27 -74 31 -145 31
-102 0 -155 -14 -213 -57 -63 -46 -97 -112 -108 -210 -9 -82 -7 -822 3 -884 2
-19 8 -71 11 -115 4 -44 9 -89 11 -100 2 -11 8 -51 14 -90 101 -648 519 -1093
1171 -1244 284 -66 665 -84 961 -45 279 37 563 141 779 286 119 79 295 254
371 369 230 344 282 691 233 1549 -2 36 -7 128 -10 205 -7 160 -9 173 -41 236
-57 114 -209 182 -354 157z"/>
<path d="M8918 13 c7 -3 16 -2 19 1 4 3 -2 6 -13 5 -11 0 -14 -3 -6 -6z"/>
<path d="M8958 13 c7 -3 16 -2 19 1 4 3 -2 6 -13 5 -11 0 -14 -3 -6 -6z"/>
<path d="M9028 13 c12 -2 32 -2 45 0 12 2 2 4 -23 4 -25 0 -35 -2 -22 -4z"/>
</g>
</svg>
