<svg id="Layer_1" data-name="Layer 1" xmlns="http://www.w3.org/2000/svg" viewBox="0 0 117.05 290.53"><defs><style>.cls-1{fill:#be1e2d;}.cls-2{fill:none;stroke:#9462a9;stroke-miterlimit:10;}.cls-3{fill:#fff;}</style></defs><title>footprint-logo2</title><path class="cls-1" d="M240.36,399.52a150.05,150.05,0,0,0-5.13-40.77c-4.58-17.18-9.69-34.31-11.33-52.09S224.55,271,228,253.43c2.08-10.73,4.53-20.67,10.15-30.09,6.05-10.15,15.32-21,27.88-22.19,14.45-1.36,28.91,11.13,36,22.7a136.75,136.75,0,0,1,16.35,41.39c4,18.17,1.65,36.32-2.11,54.3-2.49,11.88-6.49,23.68-8.25,35.67-2.18,14.91-2.1,30.26-2.38,45.28-0.12,6.44,9.88,6.44,10,0,0.26-13.9.23-29.48,2-42.62,1.57-11.46,5.5-22.74,7.91-34.07,4-18.7,6.62-37.5,3.36-56.53-2.65-15.49-8.79-30.93-16.16-44.78-7-13.09-19.79-25.48-34.22-29.88-15.44-4.71-30.35,2.25-40.54,13.89-18.07,20.62-22.14,49.32-24.24,75.75-1.82,22.85,2.62,45.14,8.54,67.1,2.34,8.67,4.93,17.32,6.63,26.14,1.53,7.91,1.48,16,1.42,24,0,6.44,10,6.44,10,0h0Z" transform="translate(-213.35 -191.13)"/><path class="cls-1" d="M306.69,421.43c0,7.35-.19,14.72-0.75,22.05-0.27,3.48-.41,7.22-1.62,10.54-4.45,12.18-16.49,17.19-28.59,17.21-13.19,0-25.2-2.48-31.76-15.25-5.14-10-4.33-23.55-4-34.45,0.21-6.44-9.79-6.43-10,0-0.72,22.4,1.2,49.53,26.5,57.59,10.29,3.28,24.6,3.48,34.83,0A37.05,37.05,0,0,0,314,456.52c1.24-3.67,1.48-7.75,1.81-11.57,0.66-7.82.88-15.68,0.87-23.52,0-6.43-10-6.45-10,0h0Z" transform="translate(-213.35 -191.13)"/><path class="cls-1" d="M255.57,399.85c-0.47-16.24-2.85-31.55-6.33-47.4-3.16-14.4-7-28.78-8.89-43.42a146.7,146.7,0,0,1-.06-35.36c1.62-14.25,4.3-28.52,11.4-41.11,2.87-5.09,6.28-10.38,11.08-13.87,6.72-4.88,12.49-1.25,17.69,4,8.6,8.72,13.89,19.31,17.92,30.83,4.41,12.61,7,25.9,6.06,39.29-0.92,13.76-3.79,27-7,40.33-3.69,15.43-4.32,31.62-5.74,47.41-0.58,6.51-1.55,13.21-1.21,19.76s10.33,6.44,10,0c-0.31-6.05.55-12.23,1.08-18.25,1.29-14.61,1.7-29.84,5-44.13,3.44-14.85,6.75-29.46,7.81-44.74,1-14.14-1.6-28.45-6.21-41.8-4.17-12.09-9.55-23.86-18.33-33.3-5.51-5.92-12-12.05-20.6-12-6.6.06-12.45,3.86-16.9,8.46-8.47,8.75-14.61,21.17-17.54,32.9a181.28,181.28,0,0,0-5.61,45.06c0.15,16.69,3.72,33,7.38,49.2,2.25,10,4.52,19.95,6.47,30,1.8,9.29,2.22,18.67,2.49,28.11,0.19,6.42,10.19,6.45,10,0h0Z" transform="translate(-213.35 -191.13)"/><path class="cls-1" d="M290.44,422.21q0.08,7.27.22,14.53c0.16,8-4.53,13.56-12.85,14.3-7.22.65-16.22,0.3-20.24-6.73-3.33-5.82-2-14.85-2.1-21.29s-10.15-6.45-10,0c0.21,9.27-1.07,19.91,4.49,27.94,6.31,9.11,17.5,10.85,27.84,10.07,10.06-.76,19.61-6.66,22.19-16.86,1.71-6.74.51-15.15,0.43-22-0.07-6.43-10.07-6.45-10,0h0Z" transform="translate(-213.35 -191.13)"/><path class="cls-1" d="M269.76,400.06a268.1,268.1,0,0,0-1.88-35.78c-1.27-10.75-4.5-20.64-6.88-31.14-6.14-27-7.29-54.54.86-81.31,1.52-5,3.23-10.52,6.42-14.74,2-2.66,2.46-2.2,4.5.42,6,7.64,9.33,18.95,11.61,28.24,5.71,23.27,2.42,44.16-2.14,66-2.16,10.31-5.42,20.85-6.55,31.35-0.6,5.55-.27,11.23-0.08,16.8,0.23,6.94.07,13.83,0.15,20.76,0.08,6.43,10.08,6.45,10,0s0.12-12.77-.1-19.17c-0.2-6-.62-12.09,0-18.06,0.09-.89-0.19,1.1,0-0.22,0.09-.49.19-1,0.29-1.45,0.36-1.74.78-3.47,1.17-5.2,1.65-7.37,3.17-14.77,4.72-22.16,5-23.91,8.1-48,1.92-72.13-2.67-10.42-6.57-22.23-13.18-30.82-6.45-8.4-15.32-7.72-21.16.86-7.08,10.39-9.81,24.55-11.77,36.73a155.78,155.78,0,0,0,.13,47.88c1.09,7.33,2.45,14.68,4.23,21.87,1.45,5.85,3.45,11.56,4.62,17.49,2.82,14.28,3.31,29.31,3.08,43.8-0.1,6.44,9.9,6.44,10,0h0Z" transform="translate(-213.35 -191.13)"/><path class="cls-1" d="M276.06,422c0.14,2.33.22,9.83-2.93,9.77-2.59,0-2.94-7-2.89-9.17,0.14-6.44-9.86-6.44-10,0-0.18,8.35,3,18.89,12.89,19.17,10.26,0.29,13.42-11.46,12.93-19.77-0.37-6.4-10.38-6.44-10,0h0Z" transform="translate(-213.35 -191.13)"/><path class="cls-2" d="M394.1,334.1" transform="translate(-213.35 -191.13)"/><path class="cls-3" d="M424,356.78" transform="translate(-213.35 -191.13)"/></svg>